<?xml version="1.0" standalone="no"?>
<!DOCTYPE svg PUBLIC "-//W3C//DTD SVG 20010904//EN"
 "http://www.w3.org/TR/2001/REC-SVG-20010904/DTD/svg10.dtd">
<svg version="1.0" xmlns="http://www.w3.org/2000/svg"
 width="700.000000pt" height="700.000000pt" viewBox="0 0 700.000000 700.000000"
 preserveAspectRatio="xMidYMid meet">
<metadata>
Created by potrace 1.11, written by Peter Selinger 2001-2013
</metadata>
<g transform="translate(0.000000,700.000000) scale(0.100000,-0.100000)"
fill="#000000" stroke="none">
<path d="M0 3500 l0 -3500 3500 0 3500 0 0 3500 0 3500 -3500 0 -3500 0 0
-3500z m4982 1708 l-1482 -1483 -1482 1483 -1483 1482 2965 0 2965 0 -1483
-1482z m-3190 -3190 l-1482 -1483 0 2965 0 2965 1482 -1483 1483 -1482 -1483
-1482z m4898 1480 l0 -2963 -1482 1482 -1483 1483 1480 1480 c814 814 1481
1480 1482 1480 2 0 3 -1333 3 -2962z m-1705 -1708 l1480 -1480 -2965 0 -2965
0 1480 1480 c814 814 1482 1480 1485 1480 3 0 671 -666 1485 -1480z"/>
</g>
</svg>
